<?xml version="1.0" standalone="no"?>
<!DOCTYPE svg PUBLIC "-//W3C//DTD SVG 20010904//EN"
 "http://www.w3.org/TR/2001/REC-SVG-20010904/DTD/svg10.dtd">
<svg version="1.0" xmlns="http://www.w3.org/2000/svg"
 width="1320.000000pt" height="767.000000pt" viewBox="0 0 1320.000000 767.000000"
 preserveAspectRatio="xMidYMid meet">

<g transform="translate(0.000000,767.000000) scale(0.100000,-0.100000)"
fill="#000000" stroke="none">
<path d="M2705 7393 c-154 -21 -348 -72 -501 -132 -375 -147 -702 -413 -934
-758 -191 -283 -290 -545 -330 -867 -16 -132 -13 -425 5 -552 60 -404 235
-782 499 -1084 309 -353 731 -580 1231 -661 121 -20 454 -18 594 4 842 132
1511 731 1704 1527 42 169 58 318 58 506 0 330 -55 583 -182 854 -339 719
-1082 1184 -1882 1179 -84 -1 -201 -8 -262 -16z m160 -884 c209 -65 290 -212
270 -492 -14 -208 -76 -398 -165 -507 -54 -67 -69 -80 -144 -131 -114 -76
-151 -82 -491 -87 l-301 -4 -49 -275 c-43 -242 -52 -276 -70 -284 -11 -5 -110
-25 -220 -44 -110 -19 -208 -37 -218 -39 -23 -6 -36 -80 143 839 82 418 156
803 165 855 9 52 21 116 26 141 l10 46 497 -2 c418 -1 505 -3 547 -16z m1379
-3 c87 -24 151 -63 211 -128 79 -85 99 -145 98 -283 0 -90 -8 -143 -41 -290
-45 -202 -64 -252 -127 -341 -68 -95 -176 -166 -306 -199 -53 -14 -110 -17
-336 -16 l-271 2 -6 -28 c-3 -15 -26 -143 -51 -283 -26 -140 -48 -263 -51
-272 -5 -17 -25 -18 -245 -18 -221 0 -239 1 -239 18 0 9 11 75 25 147 14 71
25 137 25 146 0 13 -39 -6 -157 -74 -446 -255 -812 -370 -1243 -391 -94 -4
-99 -4 -45 5 271 46 378 75 605 166 522 208 930 474 1538 1002 l163 142 66
-58 c90 -80 143 -125 143 -121 0 2 31 156 69 343 38 187 68 341 67 343 -5 4
-627 -154 -686 -175 -11 -3 8 -26 64 -77 43 -40 77 -77 75 -83 -2 -5 -62 -63
-134 -129 -71 -65 -166 -153 -210 -194 -44 -41 -97 -91 -119 -110 l-38 -35 32
48 c44 65 84 173 111 298 29 131 32 342 7 432 -13 45 -14 72 -7 129 5 40 12
81 15 91 6 19 19 19 473 14 389 -4 476 -8 525 -21z"/>
<path d="M2186 6144 c-7 -36 -86 -475 -86 -480 0 -9 388 -3 423 7 43 12 111
68 133 110 22 43 44 163 44 238 0 81 -21 115 -78 130 -20 5 -125 12 -233 16
l-197 7 -6 -28z"/>
<path d="M6050 6695 l0 -565 115 0 115 0 0 190 0 190 128 0 c154 0 224 11 302
46 70 31 141 102 170 170 25 58 38 163 28 237 -18 140 -123 243 -290 282 -47
11 -128 15 -315 15 l-253 0 0 -565z m544 340 c55 -28 78 -64 84 -129 7 -81
-23 -137 -91 -170 -47 -24 -62 -26 -179 -26 l-128 0 0 176 0 176 138 -4 c111
-3 144 -7 176 -23z"/>
<path d="M7095 7248 c-3 -7 -4 -260 -3 -563 l3 -550 118 -2 117 -1 0 204 0
205 96 -3 96 -3 113 -200 113 -200 131 -3 c72 -1 131 0 131 2 0 3 -55 100
-121 216 -67 116 -120 212 -118 214 2 1 21 13 41 25 108 65 165 189 155 337
-13 177 -115 290 -292 323 -86 16 -574 15 -580 -1z m555 -210 c59 -31 82 -66
87 -130 3 -42 -1 -61 -19 -92 -39 -66 -70 -76 -240 -76 l-148 0 0 160 0 160
138 0 c123 0 142 -2 182 -22z"/>
<path d="M8200 6695 l0 -565 373 0 c206 0 376 2 378 4 2 2 3 50 1 105 l-3 101
-260 0 -259 0 0 130 0 130 225 0 225 0 0 101 0 100 -222 -2 -223 -2 -3 127 -3
126 266 0 265 0 -3 103 -3 102 -377 3 -377 2 0 -565z"/>
<path d="M9160 6696 l0 -566 118 3 117 2 3 188 2 187 123 0 c208 0 310 27 396
106 166 149 140 460 -48 578 -87 55 -115 59 -423 64 l-288 4 0 -566z m554 336
c93 -54 109 -191 32 -268 -43 -43 -89 -54 -228 -54 l-118 0 0 177 0 176 142
-7 c109 -5 149 -11 172 -24z"/>
<path d="M7065 5896 c-186 -59 -294 -206 -295 -401 0 -164 81 -305 215 -373
64 -32 116 -42 226 -43 156 -2 264 41 349 137 74 84 111 230 91 350 -30 172
-132 287 -295 330 -63 17 -237 17 -291 0z m234 -152 c111 -33 178 -141 169
-273 -8 -103 -51 -170 -142 -218 -49 -27 -180 -24 -232 4 -55 30 -109 93 -124
148 -20 71 -9 183 23 238 58 99 179 139 306 101z"/>
<path d="M6038 5893 c-2 -5 -4 -37 -3 -73 l0 -65 128 -3 127 -3 0 -329 0 -330
90 0 90 0 0 330 0 330 120 0 120 0 0 75 0 75 -334 0 c-184 0 -336 -3 -338 -7z"/>
<path d="M6040 4300 l0 -570 120 0 120 0 0 195 0 195 129 0 c70 0 152 5 181
10 125 24 228 101 278 208 24 50 27 69 27 162 0 93 -3 112 -26 161 -30 64 -95
130 -154 159 -90 43 -146 50 -417 50 l-258 0 0 -570z m539 345 c49 -29 73 -67
79 -124 6 -64 -2 -92 -35 -132 -47 -55 -92 -69 -230 -69 l-123 0 0 176 0 176
138 -4 c114 -3 143 -7 171 -23z"/>
<path d="M7070 4300 l0 -570 388 2 387 3 3 103 3 102 -271 0 -270 0 0 135 0
135 230 0 230 0 0 100 0 100 -230 0 -230 0 0 130 0 130 270 0 270 0 0 100 0
100 -390 0 -390 0 0 -570z"/>
<path d="M8056 4778 c-3 -50 -6 -306 -6 -570 l0 -478 120 0 120 0 0 205 0 206
97 -3 96 -3 115 -202 115 -203 129 0 c120 0 130 1 123 18 -3 9 -58 106 -122
216 -90 155 -112 201 -102 208 8 5 26 15 40 23 52 28 108 105 130 177 29 93
24 232 -10 296 -52 100 -141 166 -259 191 -31 6 -161 11 -316 11 l-263 0 -7
-92z m555 -130 c58 -25 84 -71 84 -148 0 -75 -17 -106 -76 -139 -33 -19 -54
-21 -183 -21 l-146 0 0 166 0 167 143 -5 c95 -4 154 -10 178 -20z"/>
<path d="M9160 4300 l0 -570 115 0 115 0 0 225 0 225 205 0 205 0 0 100 0 100
-205 0 -205 0 0 145 0 145 264 0 264 0 1 100 2 100 -381 0 -380 0 0 -570z"/>
<path d="M6300 3160 c0 -3 17 -23 39 -44 25 -25 46 -37 60 -34 20 3 19 5 -12
43 -23 29 -40 40 -59 40 -16 1 -28 -2 -28 -5z"/>
<path d="M2570 2951 l0 -211 35 0 35 0 0 200 c0 110 1 203 3 208 1 4 -15 8
-35 10 l-38 3 0 -210z"/>
<path d="M3800 3120 c-32 -40 -32 -40 -8 -40 15 0 39 15 63 40 l39 40 -31 0
c-25 0 -38 -9 -63 -40z"/>
<path d="M5360 3125 c0 -33 2 -35 34 -35 31 0 34 3 38 35 4 35 4 35 -34 35
-37 0 -38 -1 -38 -35z"/>
<path d="M6700 2950 l0 -210 35 0 35 0 0 210 0 210 -35 0 -35 0 0 -210z"/>
<path d="M8181 3134 c-12 -15 -22 -37 -22 -50 -1 -13 -2 -30 -3 -36 0 -7 -11
-14 -23 -16 -35 -5 -32 -52 2 -52 l25 0 0 -120 0 -120 35 0 35 0 0 120 0 120
30 0 c25 0 30 4 30 25 0 21 -5 25 -31 25 -28 0 -30 2 -27 33 3 28 7 32 36 35
28 3 32 7 32 33 0 28 -1 29 -49 29 -42 0 -53 -4 -70 -26z"/>
<path d="M1730 2941 l0 -201 83 0 c99 0 146 12 188 47 43 37 59 80 59 159 0
53 -5 76 -25 109 -36 62 -78 79 -202 83 l-103 4 0 -201z m184 125 c49 -20 66
-51 66 -118 0 -99 -35 -138 -125 -138 l-45 0 0 135 0 135 35 0 c20 0 51 -6 69
-14z"/>
<path d="M5160 3075 c0 -38 -3 -45 -20 -45 -15 0 -20 -7 -20 -25 0 -20 5 -25
25 -25 l25 0 0 -100 c0 -121 12 -140 85 -140 43 0 45 1 45 29 0 25 -4 30 -27
33 -28 3 -28 3 -31 91 l-3 87 26 0 c20 0 25 5 25 25 0 20 -5 25 -25 25 -23 0
-25 4 -25 45 l0 45 -40 0 -40 0 0 -45z"/>
<path d="M2181 3022 c-45 -24 -71 -74 -71 -135 0 -96 49 -147 142 -147 56 0
62 2 97 38 l36 37 -32 3 c-18 2 -43 -4 -55 -12 -43 -30 -98 -10 -113 42 -6 22
-5 22 94 22 l101 0 0 39 c0 44 -33 99 -70 118 -36 18 -90 16 -129 -5z m119
-72 c16 -29 14 -30 -50 -30 -63 0 -73 9 -47 42 25 33 76 27 97 -12z"/>
<path d="M2758 3025 c-26 -14 -54 -52 -46 -61 10 -10 68 -7 81 5 9 7 31 11 49
9 28 -2 34 -7 36 -30 3 -27 2 -28 -43 -28 -55 0 -110 -21 -124 -48 -19 -35
-13 -81 14 -107 32 -33 110 -35 143 -5 l22 21 0 -21 c0 -16 6 -20 36 -20 l36
0 -3 120 c-4 114 -5 121 -31 147 -22 22 -38 27 -85 30 -39 2 -67 -2 -85 -12z
m122 -172 c0 -35 -27 -63 -61 -63 -50 0 -63 65 -15 75 11 2 30 6 41 8 11 3 23
5 28 6 4 0 7 -11 7 -26z"/>
<path d="M3236 3019 c-24 -19 -28 -20 -23 -6 5 14 0 17 -33 17 l-40 0 0 -195
0 -195 41 0 41 0 -4 65 c-3 67 1 76 22 50 14 -17 91 -20 121 -5 64 35 74 188
16 256 -33 38 -101 44 -141 13z m88 -61 c23 -33 21 -109 -5 -142 -44 -55 -99
-18 -99 67 0 65 20 97 60 97 18 0 34 -8 44 -22z"/>
<path d="M3570 3020 c-16 -16 -20 -17 -20 -5 0 11 -11 15 -40 15 l-40 0 0
-145 0 -145 40 0 40 0 0 98 c0 109 11 132 62 132 21 0 27 6 30 30 3 17 2 32 0
35 -12 12 -54 3 -72 -15z"/>
<path d="M3734 3022 c-35 -22 -64 -84 -64 -135 1 -42 32 -110 61 -131 15 -10
44 -16 82 -16 55 0 61 3 96 38 l36 37 -38 3 c-24 2 -43 -2 -53 -12 -32 -33
-94 -9 -109 42 -6 22 -5 22 96 22 l102 0 -5 51 c-7 73 -47 111 -120 116 -40 3
-60 -1 -84 -15z m118 -59 c35 -32 23 -43 -47 -43 -65 0 -66 0 -54 23 7 12 17
25 23 29 19 13 59 9 78 -9z"/>
<path d="M4096 3019 c-21 -17 -26 -18 -26 -5 0 12 -10 16 -35 16 l-35 0 0
-195 0 -195 35 0 35 0 0 65 0 65 25 -16 c29 -19 83 -21 114 -4 57 30 82 160
46 230 -30 58 -110 77 -159 39z m70 -47 c50 -33 39 -159 -16 -177 -43 -14 -80
28 -80 93 0 65 54 112 96 84z"/>
<path d="M4373 3026 c-27 -12 -53 -42 -53 -60 0 -11 76 -6 87 5 6 6 26 9 44 7
29 -2 34 -7 37 -30 3 -27 2 -28 -42 -28 -24 0 -56 -4 -69 -9 -103 -39 -82
-171 26 -171 24 0 52 7 63 15 25 19 34 19 34 0 0 -11 11 -15 36 -15 l36 0 -4
120 c-3 114 -4 121 -30 146 -33 33 -114 43 -165 20z m117 -174 c0 -34 -27 -62
-60 -62 -30 0 -50 16 -50 41 0 21 12 30 54 39 50 10 56 8 56 -18z"/>
<path d="M4668 3032 l-28 -3 0 -145 0 -144 35 0 35 0 0 93 c0 107 12 134 63
139 28 3 32 7 35 37 l3 34 -38 -6 c-21 -4 -44 -14 -50 -24 -12 -15 -13 -15
-13 -1 0 21 -8 25 -42 20z"/>
<path d="M4900 3029 c-32 -13 -60 -39 -60 -55 0 -18 51 -22 77 -6 12 7 37 12
55 10 28 -2 34 -7 36 -30 3 -26 1 -28 -35 -28 -93 0 -143 -34 -143 -98 0 -74
100 -111 165 -60 l27 21 -6 -21 c-7 -20 -4 -22 34 -22 39 0 42 2 36 23 -3 12
-6 66 -6 119 0 87 -2 100 -23 124 -19 22 -34 28 -78 30 -30 2 -65 -1 -79 -7z
m110 -176 c0 -35 -27 -63 -60 -63 -56 0 -65 64 -12 76 15 3 32 7 37 9 26 9 35
3 35 -22z"/>
<path d="M5563 3024 c-83 -41 -96 -196 -22 -258 25 -22 41 -26 89 -26 52 0 64
4 93 30 21 18 38 45 45 69 12 49 -1 127 -25 154 -44 47 -120 60 -180 31z m116
-70 c39 -50 21 -140 -32 -158 -22 -8 -31 -6 -52 14 -20 19 -25 33 -25 75 0 30
6 60 16 73 22 31 67 29 93 -4z"/>
<path d="M5935 3028 c-11 -6 -23 -16 -27 -22 -5 -7 -8 -4 -8 7 0 13 -9 17 -38
17 l-38 0 0 -142 1 -143 38 -3 37 -3 0 104 c0 88 3 106 18 120 23 21 56 22 76
1 13 -12 16 -38 16 -120 l0 -104 35 0 35 0 0 115 c0 63 -5 125 -11 138 -19 42
-89 60 -134 35z"/>
<path d="M6313 3025 c-26 -11 -53 -41 -53 -58 0 -12 72 -12 82 0 13 16 70 17
86 1 7 -7 12 -20 12 -29 0 -13 -12 -17 -60 -21 -81 -6 -114 -30 -118 -88 -5
-61 24 -90 90 -90 35 0 54 6 68 20 l20 20 0 -20 c0 -16 7 -20 35 -20 l35 0 0
110 c0 121 -10 154 -51 176 -35 18 -104 17 -146 -1z m125 -173 c4 -29 -33 -64
-65 -60 -54 6 -56 65 -2 79 39 11 64 4 67 -19z"/>
<path d="M6900 3029 c-31 -13 -60 -39 -60 -54 0 -18 58 -24 71 -8 14 16 71 17
87 1 7 -7 12 -20 12 -30 0 -15 -8 -18 -45 -18 -55 0 -110 -21 -124 -48 -45
-83 39 -165 128 -125 20 9 39 19 44 21 4 2 4 -4 1 -13 -6 -14 -1 -16 31 -13
l38 3 -2 114 c-1 63 -7 123 -12 133 -22 41 -109 61 -169 37z m108 -177 c5 -31
-25 -62 -58 -62 -59 0 -64 62 -7 79 46 13 62 9 65 -17z"/>
<path d="M7366 3019 c-21 -17 -26 -18 -26 -5 0 12 -10 16 -37 16 l-38 0 0
-195 0 -195 38 0 37 0 0 66 0 65 22 -15 c32 -23 100 -20 131 4 14 11 31 37 38
57 15 45 7 142 -15 175 -32 50 -105 63 -150 27z m76 -56 c47 -53 18 -171 -41
-173 -8 0 -25 10 -38 22 -18 17 -23 32 -23 73 0 30 6 60 16 73 19 27 64 29 86
5z"/>
<path d="M7653 3020 c-49 -30 -68 -65 -67 -129 0 -104 47 -151 150 -151 52 0
59 3 93 38 l36 37 -37 3 c-23 2 -47 -3 -60 -12 -12 -9 -32 -16 -43 -16 -25 0
-65 39 -65 63 0 15 13 17 100 17 l100 0 0 39 c0 44 -33 99 -70 118 -37 19
-101 16 -137 -7z m124 -70 l12 -25 -60 -3 c-34 -2 -64 -1 -67 2 -2 3 3 17 12
31 23 36 84 33 103 -5z"/>
<path d="M8030 3033 c-8 -3 -21 -12 -27 -21 -12 -14 -13 -14 -13 1 0 13 -9 17
-40 17 l-40 0 0 -145 0 -145 40 0 40 0 0 98 c0 110 7 124 68 137 27 6 32 11
32 36 0 24 -4 29 -22 28 -13 0 -30 -3 -38 -6z"/>
<path d="M8394 3030 c-86 -35 -110 -194 -39 -260 21 -20 39 -25 93 -28 58 -3
71 -1 96 19 77 61 74 210 -6 259 -34 21 -105 26 -144 10z m108 -67 c22 -26 28
-62 18 -108 -15 -66 -62 -84 -105 -40 -37 36 -32 130 9 157 20 14 63 8 78 -9z"/>
<path d="M8753 3018 c-20 -19 -23 -20 -23 -5 0 13 -9 17 -40 17 l-40 0 0 -145
0 -145 40 0 40 0 0 98 c0 110 9 127 65 134 26 3 30 7 30 33 0 25 -5 31 -25 33
-16 2 -34 -6 -47 -20z"/>
<path d="M8898 3032 l-28 -3 0 -145 0 -144 35 0 35 0 0 104 c0 97 2 106 22
120 31 22 65 20 78 -3 5 -11 10 -65 10 -120 l0 -101 35 0 35 0 0 103 c0 88 3
106 18 120 23 21 56 22 76 1 13 -12 16 -38 16 -120 l0 -104 35 0 35 0 0 121 0
121 -30 30 c-28 27 -36 30 -76 25 -25 -2 -53 -12 -62 -20 -15 -14 -19 -14 -41
4 -37 30 -119 22 -143 -15 -5 -7 -8 -5 -8 6 0 21 -8 25 -42 20z"/>
<path d="M9423 3025 c-27 -11 -53 -41 -53 -59 0 -10 69 -6 75 4 9 14 68 13 83
-2 7 -7 12 -20 12 -30 0 -15 -8 -18 -44 -18 -87 0 -136 -36 -136 -99 0 -31 6
-44 26 -60 32 -25 100 -28 132 -5 20 14 22 14 22 0 0 -12 10 -16 35 -16 l35 0
0 109 c0 60 -4 121 -10 135 -19 50 -108 71 -177 41z m115 -168 c2 -10 -4 -29
-13 -43 -30 -47 -118 -13 -89 34 20 32 96 39 102 9z"/>
<path d="M9702 3032 l-33 -3 3 -142 3 -142 38 -3 37 -3 0 104 c0 88 3 106 18
120 26 23 58 21 76 -5 12 -17 16 -48 16 -120 l0 -98 35 0 35 0 0 121 c0 120 0
121 -29 150 -36 36 -95 40 -134 9 -24 -19 -26 -19 -29 -3 -2 14 -11 17 -36 15z"/>
<path d="M10051 3022 c-44 -22 -71 -73 -71 -135 0 -110 50 -154 167 -149 37 2
88 44 98 80 6 19 3 22 -26 22 -21 0 -39 -8 -55 -25 -28 -30 -57 -32 -84 -5
-29 29 -31 106 -4 148 20 31 74 27 89 -5 8 -18 18 -23 47 -23 24 0 38 5 38 13
0 20 -37 70 -62 83 -33 19 -97 17 -137 -4z"/>
<path d="M10353 3020 c-43 -26 -67 -74 -67 -135 0 -98 49 -145 150 -145 52 0
59 3 93 38 l36 37 -32 3 c-18 2 -43 -4 -55 -12 -32 -23 -65 -20 -93 9 -47 47
-36 55 75 55 l100 0 0 38 c0 49 -18 81 -59 109 -43 29 -104 30 -148 3z m128
-71 c6 -11 9 -23 6 -25 -3 -3 -32 -4 -66 -2 l-60 3 12 25 c22 44 84 44 108 -1z"/>
<path d="M5360 2884 l0 -145 35 3 36 3 2 143 2 142 -37 0 -38 0 0 -146z"/>
<path d="M10136 2447 c-29 -38 -32 -47 -13 -47 11 0 67 62 67 74 0 18 -33 1
-54 -27z"/>
<path d="M2040 2448 c0 -15 9 -18 50 -18 l50 0 0 -150 c0 -143 1 -150 20 -150
19 0 20 7 20 150 l0 150 50 0 c44 0 50 3 50 21 0 20 -4 20 -120 17 -107 -2
-120 -4 -120 -20z"/>
<path d="M3220 2300 c0 -144 2 -170 15 -170 13 0 15 26 15 170 0 144 -2 170
-15 170 -13 0 -15 -26 -15 -170z"/>
<path d="M4382 2410 c1 -33 2 -60 2 -60 -1 0 -15 7 -30 15 -37 19 -58 19 -94
0 -44 -23 -63 -67 -58 -133 4 -47 10 -60 37 -84 35 -32 85 -37 117 -13 22 17
38 20 29 5 -3 -5 3 -10 14 -10 20 0 21 5 21 170 0 166 -1 170 -21 170 -19 0
-21 -5 -17 -60z m-22 -90 c15 -15 20 -33 20 -69 0 -62 -24 -94 -70 -94 -46 0
-70 32 -70 94 0 58 24 89 70 89 17 0 39 -9 50 -20z"/>
<path d="M4497 2438 c-3 -18 -8 -41 -12 -50 -5 -14 -2 -18 13 -18 13 0 24 10
31 31 16 47 14 69 -8 69 -13 0 -20 -9 -24 -32z"/>
<path d="M5700 2450 c0 -16 5 -21 23 -18 12 2 22 10 22 18 0 8 -10 16 -22 18
-18 3 -23 -2 -23 -18z"/>
<path d="M9580 2300 c0 -163 1 -170 20 -170 19 0 20 7 20 170 0 163 -1 170
-20 170 -19 0 -20 -7 -20 -170z"/>
<path d="M9680 2450 c0 -16 5 -21 23 -18 12 2 22 10 22 18 0 8 -10 16 -22 18
-18 3 -23 -2 -23 -18z"/>
<path d="M5130 2400 c0 -23 -4 -30 -20 -30 -11 0 -20 -7 -20 -15 0 -8 9 -15
20 -15 19 0 20 -7 20 -90 0 -77 3 -93 20 -110 27 -27 70 -27 70 1 0 11 -4 17
-10 14 -6 -4 -17 -1 -25 5 -11 9 -15 35 -15 96 0 83 0 84 25 84 16 0 25 6 25
15 0 9 -9 15 -25 15 -21 0 -25 5 -25 30 0 23 -4 30 -20 30 -16 0 -20 -7 -20
-30z"/>
<path d="M7290 2400 c0 -23 -4 -30 -20 -30 -26 0 -26 -28 1 -32 19 -3 20 -10
22 -96 2 -80 5 -96 21 -108 30 -22 66 -18 66 7 0 11 -4 17 -10 14 -6 -4 -17
-1 -25 5 -11 9 -15 35 -15 96 0 83 0 84 25 84 16 0 25 6 25 15 0 9 -9 15 -25
15 -21 0 -25 5 -25 30 0 23 -4 30 -20 30 -16 0 -20 -7 -20 -30z"/>
<path d="M2351 2368 c-44 -24 -65 -64 -65 -121 1 -29 6 -63 13 -75 18 -33 68
-55 114 -49 53 7 117 67 71 67 -9 0 -27 -9 -41 -20 -14 -11 -34 -20 -44 -20
-23 0 -66 39 -74 68 -6 22 -5 22 84 22 49 0 93 4 96 10 11 18 -16 90 -39 105
-34 22 -87 28 -115 13z m91 -45 c10 -9 18 -24 18 -35 0 -16 -8 -18 -65 -18
-54 0 -65 3 -65 17 0 46 74 71 112 36z"/>
<path d="M2610 2373 c-30 -12 -50 -37 -50 -63 0 -33 16 -48 84 -75 42 -17 51
-24 51 -45 0 -18 -8 -27 -27 -34 -26 -9 -32 -7 -94 39 -20 15 -29 -2 -14 -29
27 -51 126 -60 163 -15 36 45 11 88 -68 116 -42 16 -50 23 -50 43 0 21 5 26
35 28 23 3 38 -2 46 -13 7 -9 22 -15 35 -13 l22 3 -24 28 c-24 28 -78 43 -109
30z"/>
<path d="M2998 2362 c-26 -14 -35 -15 -31 -5 3 8 -2 13 -16 13 -21 0 -21 -4
-21 -175 0 -168 1 -175 20 -175 18 0 20 7 20 66 l0 65 22 -15 c36 -25 83 -20
120 13 31 28 33 33 33 101 0 68 -2 73 -33 101 -38 34 -64 36 -114 11z m96 -44
c22 -31 21 -110 -1 -136 -27 -32 -64 -37 -96 -12 -23 19 -27 29 -27 76 0 41 5
59 20 74 28 28 84 27 104 -2z"/>
<path d="M3368 2365 c-15 -8 -32 -24 -38 -35 -9 -17 -8 -20 14 -20 13 0 26 7
30 15 7 18 67 20 84 3 7 -7 12 -22 12 -35 0 -21 -5 -23 -45 -23 -87 0 -132
-47 -103 -108 18 -38 79 -53 119 -30 16 10 29 13 29 8 0 -6 9 -10 20 -10 19 0
20 7 20 98 0 91 -2 100 -24 121 -30 28 -83 36 -118 16z m102 -154 c0 -32 -13
-46 -53 -56 -28 -7 -67 15 -67 38 0 26 34 47 77 47 41 0 43 -1 43 -29z"/>
<path d="M3660 2373 c-8 -3 -23 -12 -32 -21 -16 -14 -18 -13 -18 1 0 10 -7 17
-15 17 -12 0 -15 -20 -15 -120 0 -114 1 -120 20 -120 19 0 21 6 19 78 0 42 -1
82 0 89 2 22 32 43 61 43 46 0 60 -31 60 -127 0 -78 1 -83 21 -83 21 0 21 4
17 100 -3 83 -7 104 -23 120 -21 21 -70 33 -95 23z"/>
<path d="M3893 2370 c-12 -5 -29 -21 -39 -35 -25 -38 -7 -68 53 -90 26 -10 57
-26 67 -36 19 -18 19 -19 1 -39 -25 -27 -61 -25 -89 5 -21 22 -56 34 -56 19 0
-17 24 -46 50 -59 66 -34 140 -3 140 60 0 36 -19 53 -82 74 -43 14 -61 32 -52
55 8 21 67 22 84 1 12 -14 50 -21 50 -9 0 19 -24 43 -51 53 -37 13 -46 13 -76
1z"/>
<path d="M4635 2366 c-40 -17 -60 -58 -60 -122 0 -65 26 -105 77 -118 46 -12
84 -1 116 32 23 22 24 27 10 30 -9 2 -30 -6 -46 -18 -22 -17 -37 -20 -60 -15
-36 7 -48 20 -57 58 l-7 27 92 0 93 0 -6 42 c-10 74 -84 115 -152 84z m99 -48
c29 -40 21 -48 -47 -48 -35 0 -67 3 -70 6 -7 8 11 46 27 56 24 16 75 8 90 -14z"/>
<path d="M4923 2370 c-13 -5 -23 -14 -23 -20 0 -5 -4 -10 -10 -10 -5 0 -7 7
-4 15 4 10 0 15 -15 15 -20 0 -21 -5 -21 -120 0 -113 1 -120 20 -120 18 0 20
7 20 88 0 100 12 122 68 122 43 0 52 -22 52 -124 0 -81 1 -86 21 -86 20 0 21
4 17 101 -3 96 -4 102 -31 125 -29 25 -56 29 -94 14z"/>
<path d="M5345 2356 c-23 -23 -25 -23 -25 -6 0 13 -7 20 -20 20 -19 0 -20 -7
-20 -120 0 -113 1 -120 20 -120 18 0 20 7 20 80 0 73 3 83 25 105 13 14 34 25
45 25 15 0 20 5 18 17 -5 27 -35 27 -63 -1z"/>
<path d="M5493 2365 c-17 -7 -36 -23 -43 -34 -9 -19 -8 -21 14 -21 13 0 26 7
30 15 7 18 67 20 84 3 7 -7 12 -22 12 -35 0 -21 -5 -23 -45 -23 -88 0 -136
-51 -104 -109 19 -35 78 -50 116 -31 45 23 46 23 39 11 -5 -7 1 -11 13 -11 20
0 21 6 21 96 0 108 -7 127 -51 143 -40 14 -47 13 -86 -4z m97 -154 c0 -52 -63
-79 -102 -44 -39 35 -9 73 58 73 42 0 44 -1 44 -29z"/>
<path d="M5885 2368 c-11 -6 -23 -16 -27 -22 -5 -7 -8 -4 -8 7 0 10 -8 17 -20
17 -19 0 -20 -7 -20 -120 0 -113 1 -120 20 -120 18 0 20 7 20 83 0 99 14 127
64 127 49 0 56 -14 56 -117 0 -86 1 -93 20 -93 19 0 20 7 20 90 0 99 -10 132
-47 149 -30 14 -52 14 -78 -1z"/>
<path d="M6143 2373 c-12 -2 -34 -18 -48 -34 -20 -25 -25 -41 -25 -85 0 -96
46 -144 128 -131 43 7 99 59 69 65 -9 2 -29 -6 -43 -17 -15 -12 -34 -21 -44
-21 -26 0 -67 36 -72 65 l-5 25 88 0 89 0 0 35 c0 64 -68 113 -137 98z m79
-50 c10 -9 18 -24 18 -35 0 -16 -8 -18 -65 -18 -54 0 -65 3 -65 17 0 46 74 71
112 36z"/>
<path d="M6408 2365 c-16 -9 -28 -11 -28 -5 0 5 -9 10 -20 10 -19 0 -20 -7
-20 -120 0 -113 1 -120 20 -120 18 0 20 7 20 88 0 98 12 122 61 122 42 0 49
-17 49 -117 0 -86 1 -93 20 -93 18 0 20 7 20 88 0 98 12 122 63 122 37 0 47
-26 47 -124 0 -79 2 -86 20 -86 19 0 20 7 20 90 0 49 -5 100 -11 114 -21 46
-99 57 -130 20 -10 -13 -14 -12 -29 1 -25 23 -71 27 -102 10z"/>
<path d="M6804 2371 c-43 -19 -64 -59 -64 -126 0 -52 4 -66 24 -88 29 -31 64
-42 111 -33 40 8 89 59 61 64 -9 2 -28 -6 -42 -17 -15 -12 -35 -21 -45 -21
-23 0 -66 39 -74 68 -6 22 -5 22 86 22 l92 0 -6 42 c-3 24 -15 51 -29 65 -27
26 -81 38 -114 24z m90 -53 c29 -41 21 -48 -49 -48 -54 0 -65 3 -65 17 0 50
85 73 114 31z"/>
<path d="M7090 2373 c-8 -3 -23 -12 -32 -21 -16 -14 -18 -13 -18 1 0 10 -7 17
-15 17 -12 0 -15 -20 -15 -120 0 -100 3 -120 15 -120 12 0 15 14 15 69 0 71
12 120 33 133 7 4 26 8 44 8 44 0 53 -21 53 -124 0 -79 2 -86 20 -86 19 0 20
7 20 96 0 92 -1 97 -29 125 -28 28 -57 35 -91 22z"/>
<path d="M7660 2373 c-8 -3 -23 -12 -32 -21 -16 -14 -18 -13 -18 1 0 10 -8 17
-20 17 -19 0 -20 -7 -20 -175 0 -168 1 -175 20 -175 18 0 20 7 20 66 l0 65 22
-15 c36 -25 83 -20 120 13 31 28 33 33 33 100 0 62 -3 74 -25 96 -26 25 -73
39 -100 28z m74 -55 c9 -13 16 -43 16 -71 0 -38 -5 -53 -25 -72 -29 -30 -40
-31 -82 -5 -30 18 -33 24 -33 72 0 39 5 57 22 75 29 31 81 31 102 1z"/>
<path d="M7903 2365 c-44 -19 -66 -66 -61 -127 3 -27 14 -62 25 -76 22 -30 77
-48 114 -39 27 7 69 42 69 57 0 15 -22 12 -42 -7 -28 -25 -86 -22 -109 6 -11
13 -19 32 -19 42 0 17 8 19 90 19 84 0 90 1 90 20 0 38 -28 89 -59 104 -36 19
-56 20 -98 1z m83 -33 c11 -7 34 -45 34 -56 0 -3 -32 -6 -71 -6 -68 0 -70 1
-63 23 3 12 11 28 16 35 11 13 66 16 84 4z"/>
<path d="M8176 2359 c-21 -17 -26 -18 -26 -5 0 9 -8 16 -20 16 -19 0 -20 -7
-20 -120 0 -113 1 -120 20 -120 18 0 20 7 20 80 0 73 3 83 25 105 13 14 33 25
45 25 13 0 20 7 20 20 0 26 -30 26 -64 -1z"/>
<path d="M8323 2370 c-12 -5 -29 -21 -39 -35 -25 -38 -7 -68 53 -90 58 -22 86
-46 78 -67 -13 -34 -95 -29 -108 6 -9 22 -37 20 -37 -2 0 -57 118 -83 164 -36
9 8 16 30 16 49 0 36 -19 53 -82 74 -48 16 -65 36 -48 56 18 21 64 19 85 -5
21 -23 45 -26 45 -7 0 39 -82 76 -127 57z"/>
<path d="M8571 2368 c-49 -26 -65 -66 -62 -151 1 -41 59 -97 100 -97 66 0 121
56 121 124 0 35 -22 87 -47 109 -27 24 -82 31 -112 15z m93 -47 c23 -25 31
-84 17 -120 -22 -52 -84 -61 -120 -17 -19 23 -17 101 3 131 20 31 74 34 100 6z"/>
<path d="M8870 2373 c-8 -3 -23 -12 -32 -21 -16 -14 -18 -13 -18 1 0 10 -8 17
-20 17 -19 0 -20 -6 -17 -120 2 -106 4 -120 20 -120 15 0 17 11 17 85 0 96 16
125 69 125 46 0 55 -20 52 -121 -2 -84 -1 -89 18 -89 20 0 21 6 21 99 0 79 -3
103 -17 120 -19 22 -67 34 -93 24z"/>
<path d="M9140 2373 c-8 -3 -23 -12 -32 -21 -16 -14 -18 -13 -18 1 0 10 -8 17
-20 17 -19 0 -20 -7 -20 -120 0 -113 1 -120 20 -120 18 0 20 7 20 85 0 96 16
125 68 125 45 0 52 -15 52 -117 0 -86 1 -93 20 -93 19 0 20 7 20 90 0 99 -10
132 -47 149 -26 12 -39 13 -63 4z"/>
<path d="M9380 2373 c-20 -7 -60 -44 -60 -55 0 -14 37 -9 50 7 18 22 77 19 90
-4 21 -40 13 -48 -51 -53 -49 -4 -66 -9 -80 -27 -58 -71 42 -159 119 -105 12
8 22 10 22 5 0 -6 9 -11 20 -11 19 0 20 7 20 94 0 84 -3 98 -22 121 -23 26
-78 40 -108 28z m90 -155 c0 -29 -9 -42 -37 -57 -30 -15 -49 -14 -67 5 -36 36
-6 74 60 74 39 0 44 -3 44 -22z"/>
<path d="M9850 2373 c-30 -11 -50 -37 -50 -63 0 -34 22 -54 85 -77 53 -20 66
-41 40 -67 -24 -23 -63 -20 -89 9 -23 25 -56 34 -56 16 0 -6 10 -22 23 -36 42
-49 141 -42 166 11 18 41 -4 75 -64 97 -27 10 -57 25 -65 33 -13 14 -12 17 9
35 25 21 60 17 74 -7 12 -20 51 -18 43 2 -3 9 -6 17 -6 20 0 2 -13 10 -30 19
-30 15 -53 18 -80 8z"/>
<path d="M10103 2373 c-59 -12 -98 -118 -69 -186 16 -39 59 -67 101 -67 34 0
82 25 95 50 9 17 8 20 -9 20 -11 0 -23 -5 -26 -11 -11 -17 -55 -29 -82 -23
-21 6 -53 53 -53 79 0 3 41 5 90 5 l90 0 0 35 c0 64 -68 113 -137 98z m81 -55
c29 -41 21 -48 -49 -48 -54 0 -65 3 -65 17 0 50 85 73 114 31z"/>
<path d="M10340 2367 c-53 -27 -56 -92 -6 -115 11 -5 38 -17 59 -25 43 -19 50
-51 14 -68 -27 -12 -74 2 -83 26 -9 21 -34 19 -34 -3 0 -52 104 -81 153 -42
27 21 36 61 19 87 -4 7 -33 23 -64 37 -31 14 -59 30 -63 36 -20 32 60 55 85
25 17 -21 54 -20 46 1 -3 9 -6 17 -6 20 0 7 -60 34 -77 34 -10 0 -29 -6 -43
-13z"/>
<path d="M5700 2250 c0 -113 1 -120 20 -120 19 0 20 7 20 120 0 113 -1 120
-20 120 -19 0 -20 -7 -20 -120z"/>
<path d="M9680 2250 c0 -113 1 -120 20 -120 19 0 20 7 20 120 0 113 -1 120
-20 120 -19 0 -20 -7 -20 -120z"/>
<path d="M7927 1806 c-102 -37 -122 -93 -122 -331 0 -207 14 -261 73 -302 48
-31 98 -35 482 -31 324 3 347 4 379 23 19 11 42 31 52 45 28 38 42 158 37 320
-3 130 -7 151 -28 195 -46 91 -39 90 -465 92 -296 2 -378 0 -408 -11z m419
-242 c68 -43 124 -80 124 -84 0 -7 -251 -160 -263 -160 -4 0 -7 72 -7 160 0
108 4 160 11 160 6 0 66 -34 135 -76z"/>
<path d="M6975 1791 c-11 -5 -29 -19 -40 -31 -19 -21 -20 -38 -23 -271 l-3
-250 30 -29 29 -30 245 0 245 0 31 26 31 26 0 249 0 249 -29 32 -29 33 -234 2
c-128 1 -242 -2 -253 -6z m143 -153 l3 -38 -40 0 c-40 0 -41 1 -41 33 0 42 7
49 45 45 27 -3 30 -7 33 -40z m284 -119 c14 -25 18 -59 18 -131 l0 -98 -40 0
-40 0 0 94 c0 73 -4 98 -16 110 -17 18 -24 19 -48 10 -13 -5 -16 -25 -16 -110
l0 -104 -40 0 -40 0 0 140 0 140 34 0 c19 0 36 -6 39 -12 3 -10 7 -10 18 -2
40 33 105 15 131 -37z m-282 -89 l0 -140 -40 0 -40 0 0 133 c0 74 2 136 5 138
2 3 20 6 40 7 l35 3 0 -141z"/>
<path d="M4759 1780 c-94 -16 -187 -83 -229 -167 -32 -63 -39 -171 -16 -241
38 -114 146 -192 277 -200 68 -4 84 -1 135 22 77 35 126 84 159 159 24 53 27
69 23 141 -5 95 -25 141 -90 203 -71 69 -163 99 -259 83z m169 -162 c3 -25 0
-27 -40 -30 l-43 -3 -3 -47 -3 -48 46 0 c45 0 46 -1 43 -27 -3 -25 -7 -28 -45
-31 -47 -3 -46 -2 -47 -99 0 -31 -3 -33 -33 -33 l-33 0 0 64 0 65 -47 3 c-44
3 -48 5 -50 31 -2 26 0 27 48 27 l49 0 0 46 c0 82 31 115 105 111 46 -2 50 -4
53 -29z"/>
<path d="M5519 1780 c-95 -16 -188 -90 -231 -185 -34 -75 -32 -181 5 -257 35
-72 104 -133 170 -153 67 -20 162 -19 223 2 67 23 154 110 177 177 21 62 22
159 1 219 -19 55 -92 140 -143 167 -28 14 -152 45 -155 39 -1 -1 -22 -5 -47
-9z m-15 -161 c1 -2 18 -26 36 -53 l33 -48 51 56 c50 53 66 65 66 49 0 -5 -20
-35 -45 -68 -25 -33 -45 -62 -45 -66 0 -3 25 -41 55 -83 30 -42 55 -79 55 -81
0 -3 -15 -5 -34 -5 -31 0 -39 6 -77 60 -23 33 -43 60 -44 60 -1 0 -21 -27 -45
-60 -24 -33 -49 -60 -57 -60 -19 0 -18 2 32 73 25 36 45 68 45 72 0 4 -20 36
-45 71 -64 89 -65 96 -21 91 20 -3 38 -6 40 -8z"/>
<path d="M6200 1779 c-50 -21 -93 -63 -117 -116 -23 -51 -25 -63 -21 -191 3
-129 5 -140 31 -184 18 -31 44 -57 75 -75 43 -26 57 -28 170 -32 158 -4 201 7
264 70 64 64 81 125 76 268 -4 128 -27 184 -96 235 l-44 31 -156 2 c-90 1
-168 -2 -182 -8z m260 -144 c0 -34 1 -35 40 -35 39 0 40 -1 40 -35 0 -34 -1
-35 -40 -35 l-40 0 0 -65 c0 -113 -36 -165 -120 -173 -58 -5 -90 11 -120 61
-39 64 -11 155 56 183 54 23 64 19 64 -23 0 -33 -5 -40 -33 -53 -57 -27 -40
-100 24 -100 50 0 60 31 59 172 -1 67 -1 126 -1 131 1 4 17 7 36 7 33 0 35 -2
35 -35z"/>
<path d="M3802 1753 c-42 -20 -77 -66 -91 -118 -6 -22 -11 -101 -11 -175 1
-182 18 -228 102 -271 32 -17 60 -19 219 -19 208 0 243 9 289 77 24 36 25 41
25 212 0 163 -2 179 -22 218 -15 26 -39 52 -66 68 -43 24 -48 25 -228 25 -150
0 -190 -3 -217 -17z m408 -51 c64 -32 74 -64 73 -244 -2 -233 -7 -238 -263
-238 -174 0 -200 6 -239 56 -19 25 -21 40 -21 186 0 177 7 204 63 238 28 18
51 20 192 20 132 0 166 -3 195 -18z"/>
<path d="M4180 1665 c-10 -12 -10 -21 -1 -41 13 -28 38 -29 55 -1 22 35 -27
74 -54 42z"/>
<path d="M3930 1598 c-41 -28 -70 -81 -70 -128 0 -43 36 -104 76 -130 42 -28
121 -27 165 3 38 26 79 90 79 126 0 40 -39 109 -74 131 -47 29 -132 28 -176
-2z m165 -53 c19 -19 25 -35 25 -70 0 -96 -100 -140 -172 -76 -28 25 -33 36
-33 76 0 39 5 51 28 71 40 34 118 34 152 -1z"/>
<path d="M7564 1046 c-32 -14 -44 -33 -44 -67 0 -12 -7 -19 -20 -19 -15 0 -20
-7 -20 -25 0 -19 5 -25 21 -25 19 0 20 -5 18 -97 l-2 -98 32 -3 31 -3 0 100 0
101 25 0 c20 0 25 5 25 24 0 18 -5 23 -22 22 -36 -2 -31 38 5 42 21 3 27 9 27
28 0 13 -4 24 -9 24 -5 0 -15 2 -23 5 -7 2 -27 -2 -44 -9z"/>
<path d="M5069 1021 c-93 -19 -152 -95 -150 -196 0 -57 24 -116 58 -147 42
-38 132 -59 177 -42 19 7 21 34 4 35 -126 5 -153 18 -181 95 -16 42 -17 56 -7
100 16 74 67 114 143 114 100 0 166 -135 102 -207 l-24 -28 -1 93 c0 91 0 92
-25 92 -14 0 -25 -5 -25 -12 0 -9 -3 -9 -12 0 -20 20 -63 14 -87 -12 -44 -47
-44 -125 0 -172 26 -28 70 -32 90 -8 11 14 13 14 21 0 24 -44 110 7 128 76 35
127 -79 245 -211 219z m70 -163 c27 -48 -16 -117 -56 -92 -22 13 -29 74 -13
104 15 28 50 22 69 -12z"/>
<path d="M6340 990 c0 -23 -4 -30 -20 -30 -15 0 -20 -7 -20 -25 0 -18 5 -25
20 -25 18 0 20 -7 20 -84 0 -76 2 -86 22 -100 24 -17 83 -22 92 -8 8 13 -5 52
-16 46 -22 -14 -38 20 -38 82 0 62 1 64 25 64 20 0 25 5 25 26 0 23 -3 26 -25
22 -23 -5 -25 -2 -25 28 0 31 -3 34 -30 34 -27 0 -30 -3 -30 -30z"/>
<path d="M5330 794 l0 -165 33 3 c31 3 32 4 35 56 3 52 3 52 25 37 64 -45 147
17 147 110 0 91 -85 156 -146 110 -25 -19 -34 -19 -34 0 0 10 -10 15 -30 15
l-30 0 0 -166z m152 99 c38 -34 12 -133 -35 -133 -45 0 -67 92 -31 131 21 23
42 24 66 2z"/>
<path d="M5610 835 l0 -125 29 0 29 0 4 81 c3 70 6 84 26 99 13 11 30 16 37
13 11 -4 15 3 15 26 0 25 -4 31 -22 31 -12 0 -30 -7 -40 -17 -17 -15 -18 -15
-18 0 0 12 -9 17 -30 17 l-30 0 0 -125z"/>
<path d="M5831 948 c-59 -32 -81 -105 -53 -174 26 -63 119 -84 182 -41 47 31
49 47 6 47 -19 0 -38 -4 -41 -10 -10 -17 -61 -11 -78 8 -32 35 -21 42 68 42
l85 0 0 35 c0 52 -43 96 -100 101 -26 3 -55 -1 -69 -8z m97 -65 c14 -23 14
-23 -42 -23 -58 0 -67 8 -40 35 22 22 63 15 82 -12z"/>
<path d="M6045 948 c-3 -8 -4 -81 -3 -163 l3 -150 34 -3 33 -3 -3 50 c-3 35 0
51 8 51 6 0 15 -4 18 -10 13 -21 74 -11 106 18 36 33 49 97 29 156 -19 57 -91
85 -136 51 -24 -18 -35 -19 -31 -2 3 17 -52 22 -58 5z m147 -55 c35 -32 13
-133 -29 -133 -31 0 -53 31 -53 73 0 65 42 96 82 60z"/>
<path d="M6541 947 c-44 -22 -66 -63 -64 -120 1 -45 5 -55 37 -84 81 -74 206
-18 206 92 0 94 -97 154 -179 112z m91 -54 c23 -21 24 -89 1 -115 -19 -21 -56
-24 -72 -4 -7 8 -15 30 -18 50 -11 67 44 110 89 69z"/>
<path d="M6760 795 l0 -165 30 0 c30 0 30 1 30 55 l0 56 30 -16 c62 -32 120
-5 141 65 32 105 -62 212 -137 155 -25 -19 -34 -19 -34 0 0 10 -10 15 -30 15
l-30 0 0 -165z m152 98 c38 -34 12 -133 -35 -133 -24 0 -51 40 -51 75 0 36 27
75 52 75 9 0 24 -7 34 -17z"/>
<path d="M7083 940 c-42 -25 -53 -48 -53 -109 0 -42 5 -56 29 -83 27 -31 34
-33 91 -33 56 0 64 3 88 30 l26 30 -34 3 c-18 2 -37 -1 -43 -7 -19 -19 -65
-13 -81 11 -9 12 -16 26 -16 30 0 5 40 8 89 8 l88 0 -7 38 c-3 20 -13 47 -20
59 -29 45 -103 57 -157 23z m101 -46 c27 -26 18 -34 -39 -34 -30 0 -55 4 -55
9 0 18 31 41 55 41 13 0 31 -7 39 -16z"/>
<path d="M7307 953 c-4 -3 -7 -60 -7 -125 l0 -118 35 0 35 0 0 78 c0 88 16
122 56 122 19 0 24 5 24 25 0 20 -5 25 -25 25 -13 0 -33 -10 -45 -22 l-20 -22
0 22 c0 16 -6 22 -23 22 -13 0 -27 -3 -30 -7z"/>
</g>
</svg>
